<svg width="74" height="47" viewBox="0 0 74 47" fill="none" xmlns="http://www.w3.org/2000/svg">
<g clip-path="url(#clip0_4080_618)">
<path d="M0 46.7678V30.301H11.2445V33.1143H3.25361V37.3472H9.91699V39.954H3.25361V46.7678H0Z" fill="#FF2400"/>
<path d="M13.2227 32.9337V29.8623H16.3982V32.9337H13.2227ZM13.2227 46.7679V34.6113H16.3982V46.7679H13.2227Z" fill="#FF2400"/>
<path d="M26.6535 46.1742C26.3932 46.2774 26.0549 46.4065 25.6905 46.5355C25.3 46.6646 24.9096 46.7936 24.4671 46.8711C24.0246 46.9485 23.6082 47.0001 23.1657 47.0001C22.593 47.0001 22.0464 46.8969 21.5519 46.6904C21.0573 46.4839 20.6669 46.1742 20.3806 45.7354C20.0943 45.2967 19.9381 44.7288 19.9381 44.032V37.1149H18.2983V34.7146H19.9381V30.7656H23.0876V34.7146H25.6905V37.1149H23.0876V42.9738C23.1136 43.3867 23.2177 43.6706 23.452 43.8771C23.6602 44.0578 23.9465 44.161 24.2849 44.161C24.6233 44.161 24.9356 44.1094 25.248 44.0062C25.5603 43.9029 25.8206 43.7997 26.0028 43.7222L26.6535 46.1742Z" fill="#FF2400"/>
<path d="M28.6057 46.7678V30.301H39.8502V33.1143H31.8593V37.3472H38.5227V39.954H31.8593V46.7678H28.6057Z" fill="#FF2400"/>
<path d="M41.8284 29.8364H44.9778V42.9221C44.9778 43.4899 45.082 43.8513 45.2642 44.0577C45.4464 44.2642 45.7067 44.3416 46.045 44.3416C46.3053 44.3416 46.5656 44.3158 46.8259 44.2384C47.0862 44.1868 47.3204 44.1094 47.5287 44.0061L47.9451 46.3806C47.5287 46.5871 47.0341 46.742 46.4615 46.8452C45.8889 46.9485 45.3943 47.0001 44.9258 47.0001C43.9367 47.0001 43.1558 46.742 42.6352 46.2258C42.0886 45.7096 41.8284 44.9611 41.8284 44.0061V29.8364Z" fill="#FF2400"/>
<path d="M55.051 47.0001C54.0619 47.0001 53.1509 46.8452 52.37 46.5097C51.5631 46.1741 50.8864 45.7354 50.3138 45.1675C49.7411 44.5997 49.2986 43.9287 49.0123 43.206C48.7 42.4575 48.5438 41.6832 48.5438 40.8573C48.5438 39.7216 48.8041 38.6634 49.3247 37.7085C49.8452 36.7535 50.6001 36.005 51.5892 35.4372C52.5783 34.8694 53.7235 34.5854 55.077 34.5854C56.4305 34.5854 57.5758 34.8694 58.5389 35.4372C59.5019 36.005 60.2307 36.7793 60.7513 37.7085C61.2719 38.6376 61.5062 39.67 61.5062 40.754C61.5062 40.9347 61.5062 41.1154 61.4801 41.3219C61.4541 41.5025 61.4541 41.6574 61.4281 41.7864H51.8755C51.9275 42.3801 52.1358 42.9221 52.4221 43.3608C52.7344 43.8254 53.1249 44.161 53.5934 44.3932C54.0619 44.6255 54.5825 44.7546 55.1291 44.7546C55.7538 44.7546 56.3524 44.5997 56.8991 44.29C57.4457 43.9803 57.8361 43.5931 58.0443 43.1027L60.7513 43.8512C60.465 44.4707 60.0225 45.0127 59.4759 45.5031C58.9293 45.9935 58.2526 46.3548 57.4977 46.6387C56.7429 46.9226 55.962 47.0001 55.051 47.0001ZM51.8234 39.7991H58.2786C58.2265 39.2054 58.0443 38.6634 57.758 38.2247C57.4717 37.7859 57.0813 37.4245 56.6127 37.1923C56.1442 36.96 55.6236 36.8309 55.025 36.8309C54.4523 36.8309 53.9318 36.96 53.4893 37.1923C53.0208 37.4504 52.6563 37.7859 52.37 38.2247C52.0577 38.6634 51.8755 39.1796 51.8234 39.7991Z" fill="#FF2400"/>
<path d="M65.0201 34.7402L67.6229 38.5085L67.8051 38.9215L68.0394 38.5085L70.6163 34.7402H73.9219L69.6272 40.7282L74 46.7677H70.6683L68.0134 43.0252L67.8051 42.6381L67.6229 43.0252L64.968 46.7677H61.6363L66.0092 40.8056L61.7144 34.7402H65.0201Z" fill="#FF2400"/>
<path d="M13.535 16.9829L50.7823 2.09058L59.3718 23.1257H52.2139L47.1122 10.6337L40.7872 13.1889L45.0299 23.1257H37.872L34.7745 15.6666L16.0598 23.1257L13.535 16.9829Z" fill="#FF2400"/>
<path d="M56.8991 7.02032C58.8541 7.02032 60.439 5.44877 60.439 3.51016C60.439 1.57155 58.8541 0 56.8991 0C54.944 0 53.3591 1.57155 53.3591 3.51016C53.3591 5.44877 54.944 7.02032 56.8991 7.02032Z" fill="#FF2400"/>
</g>
<defs>
<clipPath id="clip0_4080_618">
<rect width="74" height="47" fill="white"/>
</clipPath>
</defs>
</svg>
