<svg width="64" height="64" viewBox="0 0 64 64" fill="none" xmlns="http://www.w3.org/2000/svg">
<g filter="url(#filter0_d_109_2342)">
<rect x="11" y="9" width="39" height="39" rx="19.5" fill="white" shape-rendering="crispEdges"/>
<path fill-rule="evenodd" clip-rule="evenodd" d="M26.8153 19.6151C27.7684 19.5713 28.0722 19.5615 30.5 19.5615C32.9277 19.5615 33.2316 19.5721 34.1839 19.6151C35.1361 19.6582 35.7861 19.8101 36.3549 20.0303C36.9504 20.2554 37.4907 20.6072 37.9376 21.0622C38.3926 21.5083 38.7436 22.0478 38.9679 22.6441C39.1889 23.2129 39.34 23.8629 39.3839 24.8135C39.4277 25.7682 39.4375 26.0721 39.4375 28.499C39.4375 30.9268 39.4269 31.2306 39.3839 32.1837C39.3408 33.1343 39.1889 33.7843 38.9679 34.3531C38.7436 34.9495 38.392 35.4899 37.9376 35.9366C37.4907 36.3916 36.9504 36.7426 36.3549 36.9669C35.7861 37.1879 35.1361 37.339 34.1855 37.3829C33.2316 37.4268 32.9277 37.4365 30.5 37.4365C28.0722 37.4365 27.7684 37.426 26.8153 37.3829C25.8647 37.3398 25.2147 37.1879 24.6459 36.9669C24.0495 36.7426 23.5091 36.391 23.0624 35.9366C22.6077 35.4903 22.2558 34.9502 22.0313 34.3539C21.8111 33.7851 21.66 33.1351 21.6161 32.1845C21.5722 31.2298 21.5625 30.926 21.5625 28.499C21.5625 26.0713 21.5731 25.7674 21.6161 24.8151C21.6592 23.8629 21.8111 23.2129 22.0313 22.6441C22.2561 22.0478 22.6083 21.5077 23.0632 21.0614C23.5093 20.6068 24.0491 20.2549 24.6451 20.0303C25.2139 19.8101 25.8639 19.659 26.8145 19.6151H26.8153ZM34.1116 21.2239C33.1691 21.1808 32.8863 21.1719 30.5 21.1719C28.1137 21.1719 27.8309 21.1808 26.8884 21.2239C26.0166 21.2637 25.5438 21.4091 25.2285 21.5318C24.8117 21.6943 24.5135 21.8869 24.2007 22.1997C23.9042 22.4882 23.676 22.8394 23.5328 23.2275C23.4101 23.5428 23.2647 24.0156 23.2249 24.8875C23.1818 25.83 23.1729 26.1127 23.1729 28.499C23.1729 30.8853 23.1818 31.1681 23.2249 32.1106C23.2647 32.9824 23.4101 33.4553 23.5328 33.7705C23.6758 34.1581 23.9041 34.5099 24.2007 34.7983C24.4891 35.0949 24.8409 35.3232 25.2285 35.4662C25.5438 35.5889 26.0166 35.7343 26.8884 35.7741C27.8309 35.8172 28.1129 35.8261 30.5 35.8261C32.8871 35.8261 33.1691 35.8172 34.1116 35.7741C34.9834 35.7343 35.4563 35.5889 35.7715 35.4662C36.1883 35.3037 36.4865 35.1111 36.7993 34.7983C37.0959 34.5099 37.3242 34.1581 37.4672 33.7705C37.5899 33.4553 37.7353 32.9824 37.7751 32.1106C37.8182 31.1681 37.8271 30.8853 37.8271 28.499C37.8271 26.1127 37.8182 25.83 37.7751 24.8875C37.7353 24.0156 37.5899 23.5428 37.4672 23.2275C37.3047 22.8107 37.1121 22.5125 36.7993 22.1997C36.5108 21.9032 36.1596 21.675 35.7715 21.5318C35.4563 21.4091 34.9834 21.2637 34.1116 21.2239ZM29.3584 31.2542C29.996 31.5196 30.7059 31.5554 31.3669 31.3555C32.0279 31.1557 32.599 30.7325 32.9827 30.1583C33.3664 29.5842 33.5388 28.8946 33.4705 28.2074C33.4023 27.5202 33.0976 26.8781 32.6084 26.3906C32.2966 26.079 31.9196 25.8404 31.5045 25.692C31.0894 25.5435 30.6466 25.489 30.2079 25.5323C29.7692 25.5755 29.3456 25.7155 28.9675 25.9422C28.5894 26.1688 28.2662 26.4765 28.0213 26.843C27.7764 27.2096 27.6158 27.6258 27.551 28.0619C27.4863 28.4979 27.5191 28.9429 27.6469 29.3648C27.7748 29.7866 27.9946 30.1749 28.2906 30.5016C28.5865 30.8283 28.9512 31.0854 29.3584 31.2542ZM27.2516 25.2506C27.6782 24.8241 28.1846 24.4857 28.742 24.2548C29.2993 24.024 29.8967 23.9051 30.5 23.9051C31.1033 23.9051 31.7007 24.024 32.258 24.2548C32.8154 24.4857 33.3218 24.8241 33.7484 25.2506C34.175 25.6772 34.5133 26.1837 34.7442 26.741C34.9751 27.2984 35.0939 27.8957 35.0939 28.499C35.0939 29.1023 34.9751 29.6997 34.7442 30.257C34.5133 30.8144 34.175 31.3208 33.7484 31.7474C32.8869 32.6089 31.7184 33.0929 30.5 33.0929C29.2816 33.0929 28.1131 32.6089 27.2516 31.7474C26.3901 30.8859 25.9061 29.7174 25.9061 28.499C25.9061 27.2806 26.3901 26.1122 27.2516 25.2506ZM36.1128 24.5893C36.2185 24.4896 36.3031 24.3696 36.3616 24.2366C36.4202 24.1036 36.4514 23.9602 36.4535 23.8149C36.4556 23.6696 36.4286 23.5253 36.374 23.3907C36.3193 23.256 36.2382 23.1337 36.1355 23.0309C36.0327 22.9282 35.9104 22.8471 35.7757 22.7924C35.6411 22.7378 35.4968 22.7108 35.3515 22.7129C35.2062 22.715 35.0628 22.7462 34.9298 22.8048C34.7968 22.8633 34.6768 22.9479 34.5771 23.0536C34.3832 23.2592 34.277 23.5323 34.2811 23.8149C34.2853 24.0975 34.3993 24.3674 34.5992 24.5672C34.799 24.7671 35.0689 24.8811 35.3515 24.8853C35.6341 24.8894 35.9072 24.7832 36.1128 24.5893Z" fill="url(#paint0_linear_109_2342)"/>
</g>
<defs>
<filter id="filter0_d_109_2342" x="0.03125" y="0.46875" width="63.375" height="63.375" filterUnits="userSpaceOnUse" color-interpolation-filters="sRGB">
<feFlood flood-opacity="0" result="BackgroundImageFix"/>
<feColorMatrix in="SourceAlpha" type="matrix" values="0 0 0 0 0 0 0 0 0 0 0 0 0 0 0 0 0 0 127 0" result="hardAlpha"/>
<feOffset dx="1.21875" dy="3.65625"/>
<feGaussianBlur stdDeviation="6.09375"/>
<feComposite in2="hardAlpha" operator="out"/>
<feColorMatrix type="matrix" values="0 0 0 0 0.0862745 0 0 0 0 0.12549 0 0 0 0 0.12549 0 0 0 0.06 0"/>
<feBlend mode="normal" in2="BackgroundImageFix" result="effect1_dropShadow_109_2342"/>
<feBlend mode="normal" in="SourceGraphic" in2="effect1_dropShadow_109_2342" result="shape"/>
</filter>
<linearGradient id="paint0_linear_109_2342" x1="30.5" y1="19.5615" x2="30.5" y2="37.4365" gradientUnits="userSpaceOnUse">
<stop stop-color="#FD5423"/>
<stop offset="1" stop-color="#FF5324"/>
</linearGradient>
</defs>
</svg>
