<svg width="65" height="64" viewBox="0 0 65 64" fill="none" xmlns="http://www.w3.org/2000/svg">
<g filter="url(#filter0_d_109_2346)">
<rect x="11.625" y="9" width="39" height="39" rx="19.5" fill="white" shape-rendering="crispEdges"/>
<path d="M25.4237 24.5965C26.4056 24.5965 27.2015 23.8006 27.2015 22.8188C27.2015 21.8369 26.4056 21.041 25.4237 21.041C24.4419 21.041 23.646 21.8369 23.646 22.8188C23.646 23.8006 24.4419 24.5965 25.4237 24.5965Z" fill="url(#paint0_linear_109_2346)"/>
<path d="M28.88 25.9449V35.8079H31.9423V30.9304C31.9423 29.6434 32.1845 28.397 33.7802 28.397C35.354 28.397 35.3735 29.8685 35.3735 31.0117V35.8087H38.4375V30.3999C38.4375 27.743 37.8655 25.7012 34.7601 25.7012C33.2691 25.7012 32.2698 26.5194 31.8611 27.2937H31.8196V25.9449H28.88ZM23.8896 25.9449H26.9568V35.8079H23.8896V25.9449Z" fill="url(#paint1_linear_109_2346)"/>
</g>
<defs>
<filter id="filter0_d_109_2346" x="0.65625" y="0.46875" width="63.375" height="63.375" filterUnits="userSpaceOnUse" color-interpolation-filters="sRGB">
<feFlood flood-opacity="0" result="BackgroundImageFix"/>
<feColorMatrix in="SourceAlpha" type="matrix" values="0 0 0 0 0 0 0 0 0 0 0 0 0 0 0 0 0 0 127 0" result="hardAlpha"/>
<feOffset dx="1.21875" dy="3.65625"/>
<feGaussianBlur stdDeviation="6.09375"/>
<feComposite in2="hardAlpha" operator="out"/>
<feColorMatrix type="matrix" values="0 0 0 0 0.0862745 0 0 0 0 0.12549 0 0 0 0 0.12549 0 0 0 0.06 0"/>
<feBlend mode="normal" in2="BackgroundImageFix" result="effect1_dropShadow_109_2346"/>
<feBlend mode="normal" in="SourceGraphic" in2="effect1_dropShadow_109_2346" result="shape"/>
</filter>
<linearGradient id="paint0_linear_109_2346" x1="25.4237" y1="21.041" x2="25.4237" y2="24.5965" gradientUnits="userSpaceOnUse">
<stop stop-color="#FD5423"/>
<stop offset="1" stop-color="#FF5324"/>
</linearGradient>
<linearGradient id="paint1_linear_109_2346" x1="31.1636" y1="25.7012" x2="31.1636" y2="35.8087" gradientUnits="userSpaceOnUse">
<stop stop-color="#FD5423"/>
<stop offset="1" stop-color="#FF5324"/>
</linearGradient>
</defs>
</svg>
