<svg width="47" height="42" viewBox="0 0 47 42" fill="none" xmlns="http://www.w3.org/2000/svg">
<g id="Group 36813">
<rect id="Rectangle 4268" opacity="0.1" x="0.0414734" y="0.670898" width="45.9726" height="41.1598" rx="8" fill="url(#paint0_linear_280_1628)"/>
<g id="Group 36811">
<path id="Vector" d="M22.92 12.1747C22.2849 12.1747 21.77 12.6896 21.77 13.3247V29.1772C21.77 29.8123 22.2849 30.3272 22.92 30.3272H23.1356C23.7707 30.3272 24.2856 29.8123 24.2856 29.1772V13.3247C24.2856 12.6896 23.7707 12.1747 23.1356 12.1747H22.92Z" fill="url(#paint1_linear_280_1628)" stroke="url(#paint2_linear_280_1628)" stroke-width="0.3" stroke-linecap="round"/>
<path id="Vector_2" d="M14.0496 20.1093C13.419 20.1093 12.9078 20.6205 12.9078 21.2511C12.9078 21.8817 13.419 22.3929 14.0497 22.3929H32.006C32.6366 22.3929 33.1478 21.8817 33.1478 21.2511C33.1478 20.6205 32.6366 20.1093 32.006 20.1093H14.0496Z" fill="url(#paint3_linear_280_1628)" stroke="url(#paint4_linear_280_1628)" stroke-width="0.3" stroke-linecap="round"/>
</g>
</g>
<defs>
<linearGradient id="paint0_linear_280_1628" x1="23.0278" y1="0.670898" x2="23.0278" y2="41.8307" gradientUnits="userSpaceOnUse">
<stop stop-color="#FD5423"/>
<stop offset="1" stop-color="#FF5324"/>
</linearGradient>
<linearGradient id="paint1_linear_280_1628" x1="23.0278" y1="12.3247" x2="23.0278" y2="30.1772" gradientUnits="userSpaceOnUse">
<stop stop-color="#FD5423"/>
<stop offset="1" stop-color="#FF5324"/>
</linearGradient>
<linearGradient id="paint2_linear_280_1628" x1="23.0278" y1="12.3247" x2="23.0278" y2="30.1772" gradientUnits="userSpaceOnUse">
<stop stop-color="#FD5423"/>
<stop offset="1" stop-color="#FF5324"/>
</linearGradient>
<linearGradient id="paint3_linear_280_1628" x1="23.0278" y1="20.2593" x2="23.0278" y2="22.2429" gradientUnits="userSpaceOnUse">
<stop stop-color="#FD5423"/>
<stop offset="1" stop-color="#FF5324"/>
</linearGradient>
<linearGradient id="paint4_linear_280_1628" x1="23.0278" y1="20.2593" x2="23.0278" y2="22.2429" gradientUnits="userSpaceOnUse">
<stop stop-color="#FD5423"/>
<stop offset="1" stop-color="#FF5324"/>
</linearGradient>
</defs>
</svg>
