<svg width="26" height="21" viewBox="0 0 26 21" fill="none" xmlns="http://www.w3.org/2000/svg">
<path d="M25.5938 0.205383C25.7059 0.205383 25.7969 0.296325 25.7969 0.408508V18.3997C25.7968 18.5118 25.7059 18.6028 25.5938 18.6028H0.40625C0.294114 18.6028 0.2032 18.5118 0.203125 18.3997V0.408508C0.203125 0.296325 0.294067 0.205383 0.40625 0.205383H25.5938Z" fill="url(#paint0_linear_1_133)" stroke="black" stroke-width="0.40625" stroke-linejoin="round"/>
<path d="M25.5938 0.203125C25.7059 0.203125 25.7969 0.294067 25.7969 0.40625V18.3975C25.7968 18.5096 25.7059 18.6006 25.5938 18.6006H0.406265C0.294129 18.6006 0.203215 18.5096 0.20314 18.3975V0.40625C0.20314 0.294067 0.294082 0.203125 0.406265 0.203125H25.5938Z" fill="url(#paint1_linear_1_133)" stroke="black" stroke-width="0.40625" stroke-linejoin="round"/>
<path d="M7.60255 0.203125C7.71474 0.203125 7.80568 0.294067 7.80568 0.40625V18.3975C7.8056 18.5096 7.71469 18.6006 7.60255 18.6006H0.406265C0.294129 18.6006 0.203215 18.5096 0.20314 18.3975V0.40625C0.20314 0.294067 0.294082 0.203125 0.406265 0.203125H7.60255Z" fill="url(#paint2_linear_1_133)" stroke="black" stroke-width="0.40625" stroke-linejoin="round"/>
<g filter="url(#filter0_d_1_133)">
<path d="M21.6988 10.0768C21.5834 11.2019 21.1039 12.2829 20.2563 13.1304C18.236 15.1507 14.8896 15.0798 12.7818 12.972C10.674 10.8642 10.603 7.51776 12.6233 5.49748C13.4709 4.64991 14.5519 4.1704 15.6769 4.05496C15.3225 4.2638 14.9871 4.52149 14.6809 4.82772C12.8443 6.66434 12.7534 9.55123 14.478 11.2758C16.2025 13.0003 19.0894 12.9095 20.926 11.0729C21.2323 10.7666 21.49 10.4312 21.6988 10.0768ZM19.38 7.69677L19.0938 9.40453L18.2938 7.86882L16.5812 8.12429L17.7945 6.8889L17.0223 5.33903L18.5722 6.11123L19.8076 4.89789L19.5521 6.61053L21.0878 7.41051L19.38 7.69677Z" fill="black"/>
<path d="M12.4794 5.35413C13.3617 4.47186 14.487 3.97292 15.6559 3.85291C15.7507 3.84318 15.84 3.90059 15.8699 3.99101C15.8997 4.08168 15.8624 4.18145 15.7802 4.22994C15.4405 4.43012 15.1185 4.67753 14.8245 4.97157C13.0587 6.73752 12.9847 9.49572 14.6214 11.1325C16.2583 12.7692 19.0165 12.6953 20.7824 10.9295C21.0764 10.6355 21.3238 10.3135 21.524 9.9738C21.5725 9.8916 21.6716 9.85361 21.7623 9.88334C21.8529 9.91312 21.9101 10.0025 21.9004 10.0974C21.7804 11.2664 21.2822 12.3922 20.3998 13.2746C18.2946 15.3795 14.8195 15.2968 12.6382 13.1157C10.457 10.9345 10.3744 7.45944 12.4794 5.35413ZM16.8781 5.19531C16.9398 5.13362 17.0348 5.11784 17.1129 5.15664L18.5326 5.86512L19.6651 4.75336C19.7274 4.69217 19.8221 4.67781 19.8999 4.71746C19.9775 4.75717 20.0212 4.84182 20.0083 4.92807L19.7735 6.49696L21.1822 7.23031C21.2594 7.27074 21.3015 7.35621 21.2879 7.4423C21.2742 7.5285 21.2068 7.59636 21.1208 7.61079L19.5553 7.87251L19.2936 9.43795C19.2792 9.52407 19.2114 9.59139 19.1251 9.60506C19.0391 9.61849 18.9542 9.57582 18.9138 9.49871L18.1805 8.0914L16.6109 8.3255C16.5248 8.33821 16.44 8.29449 16.4003 8.21708C16.3607 8.13936 16.3752 8.0446 16.4362 7.9823L17.5479 6.84982L16.8401 5.4294C16.8014 5.3514 16.8166 5.25697 16.8781 5.19531Z" stroke="black" stroke-width="0.40625" stroke-linejoin="round"/>
</g>
<path d="M12.4794 5.35413C13.3617 4.47186 14.487 3.97292 15.6559 3.85291C15.7507 3.84318 15.84 3.90059 15.8699 3.99101C15.8997 4.08168 15.8624 4.18145 15.7802 4.22994C15.4405 4.43012 15.1185 4.67753 14.8245 4.97157C13.0587 6.73752 12.9847 9.49572 14.6214 11.1325C16.2583 12.7692 19.0165 12.6953 20.7824 10.9295C21.0764 10.6355 21.3238 10.3135 21.524 9.9738C21.5725 9.8916 21.6716 9.85361 21.7623 9.88334C21.8529 9.91312 21.9101 10.0025 21.9004 10.0974C21.7804 11.2664 21.2822 12.3922 20.3998 13.2746C18.2946 15.3795 14.8195 15.2968 12.6382 13.1157C10.457 10.9345 10.3744 7.45944 12.4794 5.35413ZM16.8781 5.19531C16.9398 5.13362 17.0348 5.11784 17.1129 5.15664L18.5326 5.86512L19.6651 4.75336C19.7274 4.69217 19.8221 4.67781 19.8999 4.71746C19.9775 4.75717 20.0212 4.84182 20.0083 4.92807L19.7735 6.49696L21.1822 7.23031C21.2594 7.27074 21.3015 7.35621 21.2879 7.4423C21.2742 7.5285 21.2068 7.59636 21.1208 7.61079L19.5553 7.87251L19.2936 9.43795C19.2792 9.52407 19.2114 9.59139 19.1251 9.60506C19.0391 9.61849 18.9542 9.57582 18.9138 9.49871L18.1805 8.0914L16.6109 8.3255C16.5248 8.33821 16.44 8.29449 16.4003 8.21708C16.3607 8.13936 16.3752 8.0446 16.4362 7.9823L17.5479 6.84982L16.8401 5.4294C16.8014 5.3514 16.8166 5.25697 16.8781 5.19531Z" fill="url(#paint3_linear_1_133)" stroke="black" stroke-width="0.40625" stroke-linejoin="round"/>
<defs>
<filter id="filter0_d_1_133" x="10.747" y="3.64868" width="11.3559" height="17.2692" filterUnits="userSpaceOnUse" color-interpolation-filters="sRGB">
<feFlood flood-opacity="0" result="BackgroundImageFix"/>
<feColorMatrix in="SourceAlpha" type="matrix" values="0 0 0 0 0 0 0 0 0 0 0 0 0 0 0 0 0 0 127 0" result="hardAlpha"/>
<feOffset dy="5.91119"/>
<feColorMatrix type="matrix" values="0 0 0 0 0 0 0 0 0 0 0 0 0 0 0 0 0 0 0.06 0"/>
<feBlend mode="normal" in2="BackgroundImageFix" result="effect1_dropShadow_1_133"/>
<feBlend mode="normal" in="SourceGraphic" in2="effect1_dropShadow_1_133" result="shape"/>
</filter>
<linearGradient id="paint0_linear_1_133" x1="1259.78" y1="0.408508" x2="1259.78" y2="1799.52" gradientUnits="userSpaceOnUse">
<stop stop-color="white"/>
<stop offset="1" stop-color="#F0F0F0"/>
</linearGradient>
<linearGradient id="paint1_linear_1_133" x1="1259.78" y1="0.40625" x2="1259.78" y2="1799.51" gradientUnits="userSpaceOnUse">
<stop stop-color="#0A632F"/>
<stop offset="1" stop-color="#05411E"/>
</linearGradient>
<linearGradient id="paint2_linear_1_133" x1="360.228" y1="0.40625" x2="360.228" y2="1799.51" gradientUnits="userSpaceOnUse">
<stop stop-color="white"/>
<stop offset="1" stop-color="#F0F0F0"/>
</linearGradient>
<linearGradient id="paint3_linear_1_133" x1="386.463" y1="-368.342" x2="1149.76" y2="394.955" gradientUnits="userSpaceOnUse">
<stop stop-color="white"/>
<stop offset="1" stop-color="#F0F0F0"/>
</linearGradient>
</defs>
</svg>
