<svg width="64" height="64" viewBox="0 0 64 64" fill="none" xmlns="http://www.w3.org/2000/svg">
<g filter="url(#filter0_d_109_2350)">
<rect x="11.25" y="9" width="39" height="39" rx="19.5" fill="white" shape-rendering="crispEdges"/>
<g clip-path="url(#clip0_109_2350)">
<path d="M40.2101 22.7614C39.5317 23.062 38.8028 23.2652 38.0367 23.357C38.8272 22.8839 39.4187 22.1394 39.7007 21.2623C38.9579 21.7035 38.145 22.0141 37.2973 22.1805C36.7272 21.5718 35.9721 21.1684 35.1493 21.0328C34.3265 20.8972 33.4819 21.0371 32.7467 21.4307C32.0115 21.8244 31.4268 22.4497 31.0834 23.2097C30.74 23.9696 30.6572 24.8217 30.8477 25.6336C29.3427 25.558 27.8704 25.1669 26.5263 24.4855C25.1823 23.8041 23.9965 22.8477 23.046 21.6783C22.721 22.239 22.5342 22.889 22.5342 23.5812C22.5338 24.2044 22.6873 24.818 22.9809 25.3677C23.2746 25.9173 23.6994 26.386 24.2177 26.7321C23.6166 26.713 23.0289 26.5506 22.5033 26.2584V26.3072C22.5032 27.1812 22.8056 28.0283 23.359 28.7048C23.9124 29.3813 24.6829 29.8455 25.5396 30.0187C24.982 30.1695 24.3975 30.1918 23.8301 30.0837C24.0718 30.8357 24.5427 31.4934 25.1767 31.9645C25.8108 32.4357 26.5763 32.6968 27.3661 32.7113C26.0253 33.7638 24.3695 34.3347 22.665 34.3322C22.363 34.3323 22.0613 34.3147 21.7615 34.2794C23.4917 35.3919 25.5058 35.9823 27.5627 35.98C34.5258 35.98 38.3324 30.2128 38.3324 25.2111C38.3324 25.0486 38.3283 24.8845 38.321 24.722C39.0615 24.1865 39.7006 23.5234 40.2085 22.7638L40.2101 22.7614Z" fill="url(#paint0_linear_109_2350)"/>
</g>
</g>
<defs>
<filter id="filter0_d_109_2350" x="0.28125" y="0.46875" width="63.375" height="63.375" filterUnits="userSpaceOnUse" color-interpolation-filters="sRGB">
<feFlood flood-opacity="0" result="BackgroundImageFix"/>
<feColorMatrix in="SourceAlpha" type="matrix" values="0 0 0 0 0 0 0 0 0 0 0 0 0 0 0 0 0 0 127 0" result="hardAlpha"/>
<feOffset dx="1.21875" dy="3.65625"/>
<feGaussianBlur stdDeviation="6.09375"/>
<feComposite in2="hardAlpha" operator="out"/>
<feColorMatrix type="matrix" values="0 0 0 0 0.0862745 0 0 0 0 0.12549 0 0 0 0 0.12549 0 0 0 0.06 0"/>
<feBlend mode="normal" in2="BackgroundImageFix" result="effect1_dropShadow_109_2350"/>
<feBlend mode="normal" in="SourceGraphic" in2="effect1_dropShadow_109_2350" result="shape"/>
</filter>
<linearGradient id="paint0_linear_109_2350" x1="30.9858" y1="20.9824" x2="30.9858" y2="35.98" gradientUnits="userSpaceOnUse">
<stop stop-color="#FD5423"/>
<stop offset="1" stop-color="#FF5324"/>
</linearGradient>
<clipPath id="clip0_109_2350">
<rect width="19.5" height="19.5" fill="white" transform="translate(21 18.75)"/>
</clipPath>
</defs>
</svg>
