<svg width="206" height="103" viewBox="0 0 206 103" fill="none" xmlns="http://www.w3.org/2000/svg">
<path d="M127.591 41.1786C127.591 33.2231 129.325 28.228 133.213 24.9812C135.291 23.2459 137.972 22.0272 141.476 21.2703H36.6919C28.1616 21.2703 21.246 28.1853 21.246 36.7157V45.6415C21.246 54.1719 28.161 61.0875 36.6919 61.0875H141.476C137.972 60.3301 135.291 59.1113 133.213 57.3761C129.325 54.1292 127.591 49.1336 127.591 41.1786Z" fill="#8DC63F"/>
<path d="M41.4207 34.464H30.8142V29.8255H49.5296V30.7984L37.9502 47.8921H49.1731V52.5306H29.8412V51.5576L41.4207 34.464Z" fill="white"/>
<path d="M80.6313 39.6216V52.5312H75.6362V29.6639H76.6092L91.919 42.6383V29.826H96.9141V52.6932H95.9411L80.6313 39.6216Z" fill="white"/>
<path d="M98.5823 41.3731C98.5823 33.5882 104.064 29.3717 111.135 29.3717C113.827 29.3717 116.812 29.9881 119.504 31.5126L118.401 36.1511C116.195 34.8859 113.762 34.1398 111.2 34.1398C106.757 34.1398 103.837 36.7022 103.837 41.3407C103.837 45.6221 106.302 48.2168 110.876 48.2168C114.055 48.2168 117.039 46.6923 117.622 44.1623H111.006V40.1727H121.904V52.6927H121.061L117.882 49.6436C116.39 51.6219 113.536 52.9844 110.422 52.9844C103.188 52.9844 98.5823 48.3783 98.5823 41.3725V41.3731Z" fill="white"/>
<path d="M61.577 29.3971C54.4086 29.3971 49.1866 34.2949 49.1866 41.2034C49.1866 48.112 53.8133 52.4328 60.3339 52.959V48.1185C56.8429 47.6058 54.4415 44.9273 54.4415 41.2034C54.4415 37.0841 57.4258 34.1971 61.5776 34.1971C65.7293 34.1971 68.7136 37.0841 68.7136 41.2034C68.7136 44.9273 66.3117 47.6058 62.8212 48.1185V52.9585C69.3154 52.4301 73.9685 47.7652 73.9685 41.2034C73.9685 34.2943 68.7141 29.3971 61.5781 29.3971H61.577Z" fill="white"/>
<path d="M175.805 34.585C175.802 34.6028 175.8 34.6179 175.8 34.6331C175.803 34.8178 175.803 40.9495 175.803 41.1797C175.803 55.4366 170.121 60.403 153.373 60.5597H151.689C134.944 60.403 129.262 55.4366 129.262 41.1797C129.262 26.9228 134.936 21.9618 151.659 21.7975H153.464C156.443 21.8154 165.676 21.8807 169.087 22.0201C169.104 22.0201 169.122 22.0228 169.14 22.0228C169.17 22.0255 169.2 22.0255 169.228 22.0201H172.308C173.752 22.0201 174.991 22.8975 175.522 24.1465C175.522 24.1514 175.522 24.1541 175.525 24.1568C175.545 24.2076 175.565 24.2578 175.583 24.3086C175.643 24.4679 175.689 24.6349 175.724 24.804C175.737 24.8623 175.747 24.918 175.755 24.9758C175.788 25.1757 175.806 25.3777 175.806 25.5879V34.585H175.805Z" fill="#EC0680"/>
<path d="M183.809 25.2853L180.546 24.073C179.922 23.8413 179.431 23.3502 179.199 22.7257L177.987 19.4643C177.774 18.8894 177.24 18.5183 176.627 18.5183C176.014 18.5183 175.481 18.8889 175.267 19.4637L174.715 20.9499C174.595 20.6101 174.332 20.3286 173.983 20.1984L173.119 19.8781L172.798 19.0115C172.619 18.5329 172.155 18.2114 171.643 18.2114C171.132 18.2114 170.668 18.5329 170.488 19.0142L170.167 19.8781L169.303 20.199C169.117 20.2681 168.956 20.3805 168.828 20.5204C164.229 20.3524 152.577 20.3054 152.531 20.3054C148.136 20.3054 144.499 20.6155 141.475 21.2692C137.972 22.0266 135.291 23.2448 133.213 24.9801C129.324 28.2269 127.591 33.2225 127.591 41.1775C127.591 49.1325 129.325 54.1281 133.213 57.375C135.291 59.1102 137.972 60.329 141.476 61.0864C144.5 61.7401 148.137 62.0502 152.532 62.0502C162.02 62.0502 167.979 60.6083 171.851 57.375C175.74 54.1281 177.474 49.1325 177.474 41.1775C177.474 41.0371 177.473 34.8227 177.471 34.6185C177.471 34.5823 177.463 34.5477 177.458 34.5131C177.694 34.3484 177.881 34.1123 177.988 33.8254L179.2 30.5629C179.432 29.9384 179.923 29.4479 180.547 29.2161L183.808 28.0038C184.382 27.791 184.753 27.2577 184.754 26.6451C184.754 26.0325 184.383 25.4987 183.809 25.2842V25.2853ZM175.803 41.1786C175.803 54.9071 170.532 60.0194 155.191 60.5213C154.6 60.5408 153.995 60.5543 153.374 60.5597C153.096 60.5624 152.816 60.564 152.532 60.564C152.248 60.564 151.968 60.5624 151.69 60.5597C134.944 60.4014 129.261 55.4355 129.261 41.1781C129.261 26.9206 134.937 21.9612 151.66 21.797C151.947 21.7943 152.238 21.7927 152.532 21.7927C152.587 21.7927 152.923 21.7943 153.465 21.797C153.912 21.7997 154.502 21.8029 155.191 21.8078C158.92 21.8337 165.584 21.8942 168.691 22.0039C168.833 22.2303 169.044 22.4123 169.304 22.509L170.168 22.8299L170.49 23.6959C170.661 24.1546 171.095 24.4663 171.581 24.4912L169.445 25.2848C168.871 25.4987 168.5 26.0325 168.501 26.6451C168.501 27.2577 168.873 27.791 169.446 28.0038L172.708 29.2161C173.332 29.4479 173.823 29.9389 174.055 30.5629L175.267 33.826C175.377 34.1193 175.57 34.3586 175.815 34.5234C175.811 34.5434 175.805 34.5628 175.804 34.5839C175.803 34.6001 175.8 34.6158 175.8 34.6325C175.802 34.8168 175.803 40.9479 175.803 41.1775V41.1786Z" fill="white"/>
<path d="M171.726 19.4135L172.072 20.347C172.172 20.615 172.383 20.8262 172.651 20.9256L173.585 21.2724C173.661 21.3005 173.661 21.408 173.585 21.4361L172.651 21.783C172.383 21.8824 172.172 22.0941 172.072 22.3616L171.726 23.2951C171.698 23.3713 171.59 23.3713 171.562 23.2951L171.215 22.3616C171.116 22.0936 170.904 21.8824 170.637 21.783L169.703 21.4361C169.627 21.408 169.627 21.3005 169.703 21.2724L170.637 20.9256C170.904 20.8262 171.116 20.615 171.215 20.347L171.562 19.4135C171.59 19.3373 171.698 19.3373 171.726 19.4135Z" fill="#EC0680"/>
<path d="M171.544 42.7281H162.856L162.835 42.8053L161.722 47.0786H167.014C166.745 47.6615 166.386 48.2444 165.893 48.7377C163.785 50.8452 160.242 50.9348 158.269 48.7377C155.982 46.1813 151.856 40.6206 149.569 38.109C146.968 35.2387 142.887 34.5661 139.433 35.8217L140.42 32.0097H149.03L150.151 27.7046H137.28L136.159 32.0097L133.468 42.1452C133.423 42.3694 133.334 42.5935 133.289 42.7729H137.819C138.088 42.19 138.446 41.6071 138.94 41.1138C141.048 39.0058 144.546 38.9161 146.564 41.1138C148.851 43.6702 152.977 49.1861 155.264 51.7425C158.806 55.7338 165.175 55.5096 168.942 51.7425C171.364 49.3206 172.261 45.8674 171.543 42.7281H171.544Z" fill="white"/>
<path d="M169.615 40.3958C169.863 40.3958 170.064 40.1951 170.064 39.9475C170.064 39.6998 169.863 39.4991 169.615 39.4991C169.368 39.4991 169.167 39.6998 169.167 39.9475C169.167 40.1951 169.368 40.3958 169.615 40.3958Z" fill="white"/>
<path d="M167.867 40.5304C168.114 40.5304 168.315 40.3296 168.315 40.082C168.315 39.8343 168.114 39.6336 167.867 39.6336C167.619 39.6336 167.418 39.8343 167.418 40.082C167.418 40.3296 167.619 40.5304 167.867 40.5304Z" fill="white"/>
<path d="M165.983 40.62C166.23 40.62 166.431 40.4193 166.431 40.1716C166.431 39.924 166.23 39.7232 165.983 39.7232C165.735 39.7232 165.534 39.924 165.534 40.1716C165.534 40.4193 165.735 40.62 165.983 40.62Z" fill="white"/>
<path d="M170.423 41.7416C170.671 41.7416 170.872 41.5408 170.872 41.2932C170.872 41.0455 170.671 40.8448 170.423 40.8448C170.175 40.8448 169.975 41.0455 169.975 41.2932C169.975 41.5408 170.175 41.7416 170.423 41.7416Z" fill="white"/>
<path d="M167.465 38.2857C167.736 38.2857 167.956 38.066 167.956 37.7951C167.956 37.5242 167.736 37.3046 167.465 37.3046C167.194 37.3046 166.975 37.5242 166.975 37.7951C166.975 38.066 167.194 38.2857 167.465 38.2857Z" fill="white"/>
<path d="M168.674 39.2721C168.945 39.2721 169.164 39.0525 169.164 38.7816C169.164 38.5107 168.945 38.2911 168.674 38.2911C168.403 38.2911 168.183 38.5107 168.183 38.7816C168.183 39.0525 168.403 39.2721 168.674 39.2721Z" fill="white"/>
<path d="M166.701 39.4963C166.972 39.4963 167.191 39.2767 167.191 39.0058C167.191 38.7349 166.972 38.5153 166.701 38.5153C166.43 38.5153 166.21 38.7349 166.21 39.0058C166.21 39.2767 166.43 39.4963 166.701 39.4963Z" fill="white"/>
<path d="M168.674 40.9345C168.45 40.9345 168.27 41.1138 168.27 41.338C168.27 41.5622 168.45 41.7416 168.674 41.7416C168.898 41.7416 169.077 41.5622 169.077 41.338C169.077 41.1138 168.898 40.9345 168.674 40.9345Z" fill="white"/>
<path d="M166.925 41.7416C167.149 41.7416 167.329 41.5622 167.329 41.338C167.329 41.1138 167.149 40.9345 166.925 40.9345C166.701 40.9345 166.521 41.1138 166.521 41.338C166.521 41.5622 166.701 41.7416 166.925 41.7416Z" fill="white"/>
<path d="M167.194 36.6617C163.428 34.33 158.36 34.6439 155.264 38.0517C154.548 38.8151 153.695 39.8907 152.753 41.0571C152.755 41.0587 152.756 41.0614 152.757 41.063C152.773 41.0841 152.79 41.103 152.806 41.1241C153.36 41.8069 153.913 42.5287 154.467 43.2116C154.479 43.2267 154.491 43.2397 154.503 43.2548C154.817 43.7026 155.131 44.1057 155.444 44.5108C156.113 43.6746 156.745 42.8917 157.312 42.2148C157.639 41.8221 157.946 41.465 158.223 41.1538C158.238 41.136 158.254 41.1198 158.269 41.1019C159.974 39.2181 162.844 38.9934 164.951 40.3845C165.042 40.4293 165.131 40.4293 165.176 40.3397C165.195 40.3202 165.207 40.2905 165.21 40.2608V40.2575C165.204 40.2127 165.184 40.1803 165.176 40.1711C165.124 40.1192 165.087 40.0355 165.075 39.9404C165.073 39.9269 165.071 39.9123 165.07 39.8988C165.069 39.8659 165.069 39.8302 165.074 39.7946C165.075 39.7665 165.08 39.7395 165.087 39.7114C165.096 39.6833 165.108 39.6536 165.123 39.6265C165.172 39.5239 165.249 39.4331 165.355 39.3975C165.446 39.3516 165.535 39.3516 165.58 39.3516C165.668 39.3516 165.758 39.3083 165.846 39.2208C165.848 39.2176 165.85 39.2133 165.852 39.2089C165.873 39.1657 165.882 39.1139 165.876 39.0615C165.866 38.9869 165.822 38.9426 165.805 38.9156C165.748 38.8275 165.69 38.7416 165.681 38.6433C165.678 38.6298 165.678 38.6163 165.678 38.6033C165.678 38.5574 165.688 38.5083 165.715 38.4559C165.76 38.3203 165.894 38.1863 166.029 38.142C166.118 38.0961 166.207 38.0961 166.297 38.142C166.387 38.1868 166.521 38.142 166.566 38.0512C166.582 38.0172 166.594 37.9842 166.599 37.9513C166.6 37.9318 166.6 37.914 166.599 37.8945C166.594 37.8616 166.582 37.8292 166.566 37.7946C166.561 37.787 166.548 37.7692 166.534 37.7427C166.527 37.7325 166.521 37.7217 166.517 37.7098C166.488 37.6606 166.469 37.6012 166.463 37.5342C166.461 37.5207 166.46 37.5072 166.46 37.4942C166.458 37.4672 166.46 37.4391 166.463 37.411C166.466 37.3856 166.471 37.3592 166.477 37.3338C166.504 37.2279 166.561 37.1539 166.631 37.0944C166.665 37.0615 166.702 37.035 166.74 37.0096C166.756 36.9977 166.774 36.9875 166.79 36.9756C166.88 36.9308 166.97 36.9308 167.06 36.9756C167.149 36.9756 167.194 36.9756 167.238 36.8865C167.253 36.8584 167.262 36.8297 167.266 36.8033C167.268 36.7973 167.268 36.7898 167.268 36.7838C167.271 36.733 167.249 36.6887 167.194 36.6617ZM163.698 36.1766C163.7 36.1604 163.701 36.1452 163.704 36.1307C163.743 35.8984 163.949 35.7201 164.189 35.7201C164.445 35.7201 164.661 35.9238 164.679 36.1771C164.682 36.189 164.682 36.2009 164.682 36.2144C164.682 36.2306 164.68 36.2474 164.679 36.2636C164.661 36.5164 164.445 36.719 164.189 36.719C163.95 36.719 163.743 36.5407 163.704 36.31C163.701 36.2954 163.7 36.2787 163.698 36.2641C163.697 36.2479 163.695 36.2311 163.695 36.2149C163.695 36.2014 163.695 36.1895 163.698 36.1777V36.1766ZM162.303 35.8568C162.304 35.8449 162.306 35.833 162.309 35.8211C162.346 35.6439 162.536 35.4953 162.754 35.4953C163.011 35.4953 163.187 35.7006 163.202 35.9151C163.203 35.9254 163.203 35.9346 163.203 35.9448C163.203 35.961 163.202 35.9778 163.2 35.994C163.182 36.2425 162.968 36.4046 162.754 36.4046C162.498 36.4046 162.322 36.2009 162.308 35.9864C162.308 35.9762 162.306 35.967 162.306 35.9567C162.304 35.9475 162.303 35.9389 162.303 35.9297C162.303 35.9254 162.303 35.9205 162.301 35.9162C162.301 35.9086 162.299 35.9011 162.299 35.894C162.299 35.8822 162.299 35.8686 162.303 35.8568ZM160.784 36.0383C160.782 36.0221 160.78 36.0053 160.78 35.9891C160.78 35.9756 160.78 35.9637 160.782 35.9518C160.798 35.7033 160.974 35.5413 161.23 35.5413C161.429 35.5413 161.63 35.6839 161.668 35.9059C161.672 35.9211 161.673 35.9373 161.674 35.9518C161.678 35.9637 161.678 35.9756 161.678 35.9891C161.678 36.0026 161.678 36.0172 161.676 36.0307C161.661 36.2452 161.485 36.4489 161.23 36.4489C161.015 36.4489 160.801 36.2868 160.784 36.0383ZM161.858 37.84C161.6 37.84 161.424 37.6347 161.41 37.4202C161.408 37.4067 161.408 37.3921 161.408 37.3786C161.408 37.3684 161.408 37.3592 161.41 37.3489C161.425 37.1344 161.6 36.9308 161.858 36.9308C162.115 36.9308 162.289 37.1344 162.304 37.3489C162.305 37.3592 162.305 37.3684 162.305 37.3786C162.305 37.3948 162.304 37.4116 162.302 37.4278C162.301 37.444 162.298 37.4591 162.296 37.4737C162.257 37.6952 162.057 37.84 161.858 37.84ZM163.155 38.8194C163.137 39.0723 162.92 39.2749 162.664 39.2749C162.425 39.2749 162.219 39.0966 162.181 38.8659C162.177 38.8508 162.176 38.8346 162.175 38.82C162.173 38.8038 162.171 38.787 162.171 38.7708C162.171 38.7573 162.171 38.7454 162.175 38.7335C162.176 38.7173 162.178 38.7022 162.181 38.6876C162.22 38.4553 162.425 38.277 162.664 38.277C162.92 38.277 163.137 38.4807 163.155 38.7341C163.158 38.746 163.158 38.7578 163.158 38.7713C163.158 38.7876 163.157 38.8043 163.155 38.8205V38.8194ZM163.428 38.0188C163.188 38.0188 162.981 37.84 162.942 37.6098C162.939 37.5947 162.938 37.5785 162.936 37.5639C162.935 37.5477 162.933 37.531 162.933 37.5148C162.933 37.5012 162.933 37.4894 162.936 37.4775C162.938 37.4613 162.94 37.4461 162.942 37.4316C162.981 37.1993 163.188 37.021 163.428 37.021C163.727 37.021 163.902 37.2246 163.919 37.478C163.92 37.4899 163.92 37.5018 163.92 37.5153C163.92 37.5315 163.919 37.5482 163.917 37.5645C163.899 37.8173 163.682 38.0199 163.428 38.0199V38.0188ZM164.82 39.2986C164.796 39.5142 164.593 39.6779 164.323 39.6779C164.069 39.6779 163.853 39.4753 163.834 39.2241C163.832 39.2079 163.831 39.19 163.831 39.1733C163.831 39.1598 163.831 39.1479 163.834 39.1344C163.853 38.8832 164.069 38.679 164.323 38.679C164.563 38.679 164.768 38.8578 164.808 39.0879C164.812 39.1031 164.813 39.1176 164.814 39.1338C164.817 39.1474 164.817 39.1592 164.817 39.1727C164.819 39.1803 164.82 39.189 164.82 39.1981C164.822 39.2057 164.822 39.2116 164.822 39.2187C164.823 39.2306 164.823 39.2408 164.823 39.2527C164.823 39.2678 164.822 39.2824 164.82 39.2975V39.2986ZM165.531 37.968C165.53 37.9826 165.528 37.9993 165.525 38.0139C165.485 38.2446 165.28 38.4229 165.042 38.4229C164.786 38.4229 164.57 38.2192 164.551 37.9675C164.549 37.9513 164.547 37.9334 164.547 37.9167C164.547 37.9032 164.547 37.8913 164.551 37.8778C164.57 37.6266 164.786 37.4224 165.042 37.4224C165.298 37.3792 165.515 37.5828 165.533 37.8762C165.534 37.8897 165.534 37.9032 165.534 37.9162C165.534 37.9324 165.533 37.9502 165.531 37.9669V37.968ZM166.204 36.7125C166.202 36.7271 166.201 36.7438 166.198 36.7584C166.158 36.9891 165.953 37.1674 165.714 37.1674C165.458 37.1674 165.243 36.9637 165.223 36.712C165.222 36.6968 165.22 36.6822 165.22 36.6671V36.6612C165.22 36.6493 165.22 36.6374 165.223 36.6255C165.244 36.4083 165.46 36.1685 165.714 36.1685C165.953 36.1685 166.158 36.3473 166.198 36.5764C166.201 36.5915 166.202 36.6061 166.204 36.6223C166.207 36.6358 166.207 36.6477 166.207 36.6612C166.207 36.6774 166.205 36.6952 166.204 36.712V36.7125Z" fill="white"/>
<path d="M134.948 48.5491C134.948 48.2801 134.769 48.1007 134.5 48.1007C134.231 48.1007 134.052 48.2801 134.052 48.5491C134.052 48.8182 134.231 48.9975 134.5 48.9975C134.724 48.9975 134.948 48.7733 134.948 48.5491Z" fill="white"/>
<path d="M137.951 49.1315C138.199 49.1315 138.4 48.9308 138.4 48.6831C138.4 48.4355 138.199 48.2347 137.951 48.2347C137.704 48.2347 137.503 48.4355 137.503 48.6831C137.503 48.9308 137.704 49.1315 137.951 49.1315Z" fill="white"/>
<path d="M137.055 50.2973C137.328 50.2973 137.548 50.0765 137.548 49.8041C137.548 49.5317 137.328 49.3109 137.055 49.3109C136.783 49.3109 136.562 49.5317 136.562 49.8041C136.562 50.0765 136.783 50.2973 137.055 50.2973Z" fill="white"/>
<path d="M137.199 47.473C137.422 47.473 137.603 47.2923 137.603 47.0694C137.603 46.8465 137.422 46.6658 137.199 46.6658C136.977 46.6658 136.796 46.8465 136.796 47.0694C136.796 47.2923 136.977 47.473 137.199 47.473Z" fill="white"/>
<path d="M135.565 47.5292C135.806 47.5292 136.002 47.3335 136.002 47.0921C136.002 46.8507 135.806 46.655 135.565 46.655C135.323 46.655 135.128 46.8507 135.128 47.0921C135.128 47.3335 135.323 47.5292 135.565 47.5292Z" fill="white"/>
<path d="M134.029 47.5178C134.264 47.5178 134.455 47.3272 134.455 47.0921C134.455 46.857 134.264 46.6664 134.029 46.6664C133.794 46.6664 133.604 46.857 133.604 47.0921C133.604 47.3272 133.794 47.5178 134.029 47.5178Z" fill="white"/>
<path d="M136.203 48.9975C136.451 48.9975 136.652 48.7968 136.652 48.5491C136.652 48.3015 136.451 48.1007 136.203 48.1007C135.956 48.1007 135.755 48.3015 135.755 48.5491C135.755 48.7968 135.956 48.9975 136.203 48.9975Z" fill="white"/>
<path d="M138.258 51.4626C138.543 51.4626 138.774 51.2319 138.774 50.9472C138.774 50.6626 138.543 50.4319 138.258 50.4319C137.974 50.4319 137.743 50.6626 137.743 50.9472C137.743 51.2319 137.974 51.4626 138.258 51.4626Z" fill="white"/>
<path d="M137.257 52.4939C137.554 52.4939 137.795 52.253 137.795 51.9559C137.795 51.6587 137.554 51.4178 137.257 51.4178C136.96 51.4178 136.719 51.6587 136.719 51.9559C136.719 52.253 136.96 52.4939 137.257 52.4939Z" fill="white"/>
<path d="M136.091 51.4178C136.376 51.4178 136.607 51.1871 136.607 50.9024C136.607 50.6178 136.376 50.387 136.091 50.387C135.807 50.387 135.576 50.6178 135.576 50.9024C135.576 51.1871 135.807 51.4178 136.091 51.4178Z" fill="white"/>
<path d="M135.172 50.2525C135.445 50.2525 135.666 50.0317 135.666 49.7593C135.666 49.4869 135.445 49.266 135.172 49.266C134.9 49.266 134.679 49.4869 134.679 49.7593C134.679 50.0317 134.9 50.2525 135.172 50.2525Z" fill="white"/>
<path d="M139.229 50.4799C139.514 50.4799 139.745 50.2492 139.745 49.9645C139.745 49.6799 139.514 49.4492 139.229 49.4492C138.944 49.4492 138.714 49.6799 138.714 49.9645C138.714 50.2492 138.944 50.4799 139.229 50.4799Z" fill="white"/>
<path d="M150.548 46.8906C150.234 46.3974 149.83 45.815 149.382 45.2769C148.307 46.6216 147.32 47.8322 146.514 48.6836C144.945 50.387 142.479 50.7009 140.462 49.7593C140.437 49.7468 140.416 49.742 140.396 49.7414C140.396 49.7414 140.39 49.7414 140.379 49.742C140.375 49.742 140.372 49.7431 140.368 49.7441C140.341 49.7485 140.296 49.7614 140.238 49.8046C140.238 49.8046 140.194 49.8354 140.173 49.8819C140.171 49.8873 140.169 49.8922 140.167 49.8976C140.166 49.9003 140.164 49.9024 140.164 49.9051C140.164 49.9051 140.161 49.9197 140.16 49.9386C140.16 49.9424 140.16 49.9467 140.16 49.9505C140.16 49.9645 140.161 49.9797 140.165 49.9932C140.165 49.9932 140.166 49.9986 140.168 50.0056C140.168 50.0067 140.168 50.0072 140.169 50.0078C140.173 50.0267 140.183 50.0602 140.199 50.091C140.242 50.2195 140.281 50.3481 140.238 50.4762C140.193 50.6555 140.059 50.7452 139.88 50.8349C139.745 50.8797 139.611 50.8349 139.476 50.79C139.386 50.7452 139.297 50.7452 139.252 50.79L139.207 50.8349C139.162 50.8797 139.117 50.9694 139.162 51.0591C139.207 51.1936 139.252 51.3281 139.207 51.4626C139.162 51.642 139.028 51.7765 138.848 51.8213C138.714 51.8662 138.534 51.8662 138.445 51.7765C138.355 51.7317 138.31 51.7317 138.22 51.8213L138.176 51.8662C138.131 51.911 138.131 52.0007 138.131 52.0904C138.176 52.1801 138.22 52.3146 138.176 52.4491C138.176 52.5836 138.041 52.763 137.907 52.8078C137.682 52.9423 137.548 52.8975 137.369 52.763C137.324 52.7181 137.189 52.7181 137.144 52.763C137.099 52.8527 137.099 52.9423 137.189 52.9872C140.999 55.5425 146.289 55.1838 149.427 51.7322C150.144 50.9251 151.04 49.8943 151.982 48.6842C151.534 48.1013 151.04 47.5189 150.548 46.8911V46.8906ZM142.21 50.7004C142.479 50.7004 142.659 50.9246 142.659 51.1488C142.659 51.4178 142.434 51.5972 142.21 51.5972C141.941 51.5972 141.762 51.373 141.762 51.1488C141.762 50.9246 141.986 50.7004 142.21 50.7004ZM140.955 50.4319C141.224 50.4319 141.448 50.6561 141.448 50.9251C141.448 51.1941 141.224 51.4183 140.955 51.4183C140.686 51.4183 140.462 51.1941 140.462 50.9251C140.462 50.6561 140.686 50.4319 140.955 50.4319ZM139.162 53.6144C138.893 53.6144 138.669 53.3902 138.669 53.1212C138.669 52.8521 138.893 52.6279 139.162 52.6279C139.431 52.6279 139.655 52.8521 139.655 53.1212C139.655 53.3902 139.431 53.6144 139.162 53.6144ZM139.476 52.0007C139.476 51.7317 139.7 51.5075 139.969 51.5075C140.238 51.5075 140.462 51.7317 140.462 52.0007C140.462 52.2697 140.238 52.4939 139.969 52.4939C139.7 52.5388 139.476 52.3146 139.476 52.0007ZM140.596 54.0623C140.327 54.0623 140.103 53.8381 140.103 53.569C140.103 53.3 140.327 53.0758 140.596 53.0758C140.865 53.0758 141.09 53.3 141.09 53.569C141.045 53.8381 140.821 54.0623 140.596 54.0623ZM140.91 52.4037C140.91 52.1347 141.135 51.9105 141.404 51.9105C141.673 51.9105 141.897 52.1347 141.897 52.4037C141.897 52.6728 141.673 52.897 141.404 52.897C141.135 52.897 140.91 52.6728 140.91 52.4037ZM142.031 54.3313C141.762 54.3313 141.582 54.1071 141.582 53.8829C141.582 53.6587 141.807 53.4345 142.031 53.4345C142.3 53.4345 142.479 53.6587 142.479 53.8829C142.479 54.1071 142.255 54.3313 142.031 54.3313ZM142.793 53.0315C142.524 53.0315 142.345 52.8073 142.345 52.5831C142.345 52.314 142.569 52.1347 142.793 52.1347C143.062 52.1347 143.241 52.3589 143.241 52.5831C143.241 52.8073 143.017 53.0315 142.793 53.0315ZM143.6 54.3313C143.375 54.3313 143.151 54.1519 143.151 53.8829C143.151 53.6587 143.331 53.4345 143.6 53.4345C143.824 53.4345 144.048 53.6139 144.048 53.8829C144.048 54.1071 143.824 54.3313 143.6 54.3313Z" fill="white"/>
<path d="M176.914 19.8624L178.126 23.1249C178.474 24.0606 179.212 24.7986 180.147 25.1465L183.41 26.3588C183.675 26.4576 183.675 26.8326 183.41 26.9314L180.147 28.1437C179.212 28.4916 178.474 29.2296 178.126 30.1658L176.914 33.4278C176.815 33.6931 176.44 33.6931 176.341 33.4278L175.129 30.1658C174.781 29.2296 174.043 28.4916 173.107 28.1437L169.845 26.9314C169.579 26.8331 169.579 26.4576 169.845 26.3588L173.107 25.1465C174.043 24.7986 174.781 24.0606 175.129 23.1249L176.341 19.8624C176.44 19.5972 176.815 19.5972 176.914 19.8624Z" fill="#EC0680"/>
<path d="M115.77 79.4134C112.353 84.9131 104.307 85.274 100.516 80.0034C98.9917 77.9548 98.4606 75.2428 98.9971 72.7572C99.0943 72.4411 99.1986 71.9419 99.3315 71.6421L99.54 71.0992C99.6254 70.9295 99.8463 70.4838 99.9295 70.3201C100.028 70.1602 100.291 69.7475 100.393 69.5843C101.068 68.6486 101.91 67.8237 102.878 67.1986C104.33 66.2684 106.048 65.7897 107.769 65.8043C106.251 65.8502 104.747 66.2457 103.449 67.036C102.316 67.7021 101.354 68.6519 100.623 69.7399C100.526 69.9036 100.29 70.3083 100.197 70.466C100.125 70.6248 99.922 71.0635 99.8463 71.2288C99.7847 71.4049 99.6302 71.8512 99.5719 72.0214C99.5308 72.1937 99.4195 72.6578 99.3769 72.8355C99.3455 73.1548 99.2467 73.6237 99.2521 73.9419C98.935 78.7176 102.845 82.9147 107.638 82.8753C110.524 82.9028 113.325 81.287 114.756 78.7992C115.169 78.1244 116.177 78.7306 115.768 79.414L115.77 79.4134Z" fill="#8CC13F"/>
<path d="M108.355 67.9625C110.644 68.3018 111.192 68.8496 111.531 71.1386C111.558 71.3207 111.82 71.3207 111.847 71.1386C112.186 68.8502 112.734 68.3018 115.023 67.9625C115.205 67.9355 115.205 67.6735 115.023 67.6465C112.735 67.3072 112.186 66.7594 111.847 64.4704C111.82 64.2884 111.558 64.2884 111.531 64.4704C111.192 66.7589 110.644 67.3072 108.355 67.6465C108.173 67.6735 108.173 67.9355 108.355 67.9625Z" fill="#8CC13F"/>
<path d="M115.124 69.7539C114.424 69.6545 114.267 69.4979 114.168 68.7983C114.161 68.7507 114.092 68.7507 114.085 68.7983C113.986 69.4984 113.829 69.6545 113.13 69.7539C113.082 69.761 113.082 69.8296 113.13 69.8366C113.83 69.936 113.986 70.0927 114.085 70.7923C114.092 70.8398 114.161 70.8398 114.168 70.7923C114.267 70.0921 114.424 69.936 115.124 69.8366C115.171 69.8296 115.171 69.761 115.124 69.7539Z" fill="#8CC13F"/>
<path d="M108.25 65.8394C109.008 65.942 109.163 66.096 109.265 66.8545C109.27 66.8961 109.331 66.8961 109.337 66.8545C109.439 66.096 109.593 65.9415 110.352 65.8394C110.393 65.834 110.393 65.7735 110.352 65.7675C109.593 65.6649 109.439 65.5109 109.337 64.7524C109.331 64.7108 109.271 64.7108 109.265 64.7524C109.162 65.5109 109.008 65.6654 108.25 65.7675C108.208 65.7729 108.208 65.8334 108.25 65.8394Z" fill="#8CC13F"/>
<path d="M113.572 76.4254L113.616 75.2244C114.373 75.5448 115.253 75.7668 115.947 75.7668C116.401 75.7668 116.667 75.6869 116.667 75.4735C116.667 75.198 116.036 75.1623 115.244 75.011C114.443 74.869 113.705 74.6021 113.705 73.7123C113.705 72.6804 114.719 72.191 115.742 72.191C116.311 72.191 117.059 72.3244 117.708 72.6448L117.432 73.7923C116.845 73.4897 116.267 73.3385 115.751 73.3385C115.289 73.3385 115.058 73.4541 115.058 73.6675C115.058 73.943 115.44 73.9786 116.312 74.1213C117.139 74.2547 118.02 74.4859 118.02 75.4557C118.02 76.4254 117.024 76.9057 115.947 76.9057C115.102 76.9057 114.221 76.7101 113.572 76.4254Z" fill="#58595B"/>
<path d="M118.456 74.5486C118.456 73.1699 119.435 72.191 120.653 72.191C121.383 72.191 121.863 72.5827 122.183 73.0538L123.171 72.3152H123.402V76.7814H122.477L122.201 76.1942C121.881 76.5945 121.391 76.9057 120.653 76.9057C119.435 76.9057 118.456 75.9359 118.456 74.5481V74.5486ZM122.077 75.1537V74.0683C121.828 73.7123 121.374 73.4276 120.956 73.4276C120.279 73.4276 119.817 73.8722 119.817 74.5486C119.817 75.225 120.279 75.6696 120.956 75.6696C121.365 75.6696 121.81 75.474 122.077 75.1537Z" fill="#58595B"/>
<path d="M130.937 74.3973H127.877V76.7814H126.489V70.5541H127.877V73.0986H130.937V70.5541H132.325V76.7814H130.937V74.3973Z" fill="#58595B"/>
<path d="M132.877 74.5486C132.877 73.1699 133.855 72.191 135.074 72.191C135.803 72.191 136.284 72.5827 136.604 73.0538L137.591 72.3152H137.823V76.7814H136.897L136.621 76.1942C136.301 76.5945 135.812 76.9057 135.073 76.9057C133.855 76.9057 132.876 75.9359 132.876 74.5481L132.877 74.5486ZM136.497 75.1537V74.0683C136.248 73.7123 135.795 73.4276 135.376 73.4276C134.701 73.4276 134.238 73.8722 134.238 74.5486C134.238 75.225 134.7 75.6696 135.376 75.6696C135.786 75.6696 136.231 75.474 136.497 75.1537Z" fill="#58595B"/>
<path d="M138.481 70.8474C138.481 70.385 138.846 70.0646 139.335 70.0646C139.825 70.0646 140.189 70.385 140.189 70.8474C140.189 71.3099 139.825 71.6216 139.335 71.6216C138.846 71.6216 138.481 71.3012 138.481 70.8474ZM138.659 72.3158H140.011V76.7819H138.659V72.3158Z" fill="#58595B"/>
<path d="M143.187 70.5541H148.098V71.8263H144.575V73.4633H147.857V74.6556H144.575V76.7819H143.187V70.5546V70.5541Z" fill="#58595B"/>
<path d="M148.632 74.9219V72.3152H149.984V74.5837C149.984 75.3487 150.197 75.6426 150.74 75.6426C151.123 75.6426 151.497 75.4114 151.808 75.0467V72.3158H153.16V76.7819H152.244L151.897 76.0526C151.47 76.5956 150.856 76.9067 150.251 76.9067C149.13 76.9067 148.632 76.1952 148.632 74.923L148.632 74.9219Z" fill="#58595B"/>
<path d="M154.61 75.0024V73.4724H153.818V72.3514H154.512L155.73 71.0614H155.962V72.3158H157.572V73.4724H155.962V74.6199C155.962 75.2785 156.059 75.6788 156.691 75.6788C156.914 75.6788 157.252 75.6431 157.563 75.554L157.545 76.7992C157.207 76.8792 156.842 76.9062 156.567 76.9062C155.33 76.9062 154.609 76.2747 154.609 75.0024H154.61Z" fill="#58595B"/>
<path d="M158.231 74.9219V72.3152H159.583V74.5837C159.583 75.3487 159.796 75.6426 160.339 75.6426C160.722 75.6426 161.096 75.4114 161.407 75.0467V72.3158H162.759V76.7819H161.843L161.496 76.0526C161.069 76.5956 160.455 76.9067 159.85 76.9067C158.729 76.9067 158.231 76.1952 158.231 74.923L158.231 74.9219Z" fill="#58595B"/>
<path d="M163.488 72.3158H163.729L164.77 73.09C165.179 72.4314 165.828 72.0846 166.753 72.2537L166.629 73.5702C165.979 73.5524 165.33 73.668 164.84 74.1931V76.7819H163.488V72.3158Z" fill="#58595B"/>
<path d="M166.94 74.5394C166.94 73.0359 168.105 72.191 169.404 72.191C170.703 72.191 171.921 73.0716 171.717 74.9667H168.318C168.488 75.4562 169.021 75.7587 169.742 75.7587C170.204 75.7587 170.712 75.6696 171.335 75.3228L171.352 76.4524C170.97 76.7014 170.285 76.9062 169.644 76.9062C167.963 76.9062 166.94 75.9629 166.94 74.54V74.5394ZM170.418 74.0948C170.294 73.641 169.965 73.3476 169.377 73.3476C168.826 73.3476 168.47 73.6502 168.336 74.0948H170.418H170.418Z" fill="#58595B"/>
<path d="M106.725 70.4736H106.992L110.186 76.7814H108.718L108.202 75.6961H105.489L104.946 76.7814H103.478L106.726 70.4736H106.725ZM107.721 74.6642L106.867 72.876L105.987 74.6642H107.721Z" fill="#8CC13F"/>
<path d="M111.012 72.3152H112.365V76.7814H111.012V72.3152Z" fill="#8CC13F"/>
</svg>
